<svg width="32" height="32" viewBox="0 0 32 32" fill="none" xmlns="http://www.w3.org/2000/svg">
<g clip-path="url(#clip0_180_105)">
<path d="M7.92163 26V3.6H18.8656C21.6816 3.6 23.7936 4.13333 25.2016 5.2C26.631 6.26667 27.3456 7.67467 27.3456 9.424C27.3456 10.5973 27.0576 11.6213 26.4816 12.496C25.9056 13.3493 25.1163 14.0107 24.1136 14.48C23.111 14.9493 21.959 15.184 20.6576 15.184L21.2656 13.872C22.6736 13.872 23.9216 14.1067 25.0096 14.576C26.0976 15.024 26.9403 15.696 27.5376 16.592C28.1563 17.488 28.4656 18.5867 28.4656 19.888C28.4656 21.808 27.7083 23.312 26.1936 24.4C24.679 25.4667 22.4496 26 19.5056 26H7.92163ZM13.0736 22.096H19.1216C20.4656 22.096 21.479 21.8827 22.1616 21.456C22.8656 21.008 23.2176 20.304 23.2176 19.344C23.2176 18.4053 22.8656 17.712 22.1616 17.264C21.479 16.7947 20.4656 16.56 19.1216 16.56H12.6896V12.784H18.2256C19.4843 12.784 20.4443 12.5707 21.1056 12.144C21.7883 11.696 22.1296 11.024 22.1296 10.128C22.1296 9.25333 21.7883 8.60267 21.1056 8.176C20.4443 7.728 19.4843 7.504 18.2256 7.504H13.0736V22.096Z" fill="#F1C22E"/>
<path d="M6.92163 27V4.6H17.8656C20.6816 4.6 22.7936 5.13333 24.2016 6.2C25.631 7.26667 26.3456 8.67467 26.3456 10.424C26.3456 11.5973 26.0576 12.6213 25.4816 13.496C24.9056 14.3493 24.1163 15.0107 23.1136 15.48C22.111 15.9493 20.959 16.184 19.6576 16.184L20.2656 14.872C21.6736 14.872 22.9216 15.1067 24.0096 15.576C25.0976 16.024 25.9403 16.696 26.5376 17.592C27.1563 18.488 27.4656 19.5867 27.4656 20.888C27.4656 22.808 26.7083 24.312 25.1936 25.4C23.679 26.4667 21.4496 27 18.5056 27H6.92163ZM12.0736 23.096H18.1216C19.4656 23.096 20.479 22.8827 21.1616 22.456C21.8656 22.008 22.2176 21.304 22.2176 20.344C22.2176 19.4053 21.8656 18.712 21.1616 18.264C20.479 17.7947 19.4656 17.56 18.1216 17.56H11.6896V13.784H17.2256C18.4843 13.784 19.4443 13.5707 20.1056 13.144C20.7883 12.696 21.1296 12.024 21.1296 11.128C21.1296 10.2533 20.7883 9.60267 20.1056 9.176C19.4443 8.728 18.4843 8.504 17.2256 8.504H12.0736V23.096Z" fill="#F2AE31"/>
<path d="M5.92163 28V5.6H16.8656C19.6816 5.6 21.7936 6.13333 23.2016 7.2C24.631 8.26667 25.3456 9.67467 25.3456 11.424C25.3456 12.5973 25.0576 13.6213 24.4816 14.496C23.9056 15.3493 23.1163 16.0107 22.1136 16.48C21.111 16.9493 19.959 17.184 18.6576 17.184L19.2656 15.872C20.6736 15.872 21.9216 16.1067 23.0096 16.576C24.0976 17.024 24.9403 17.696 25.5376 18.592C26.1563 19.488 26.4656 20.5867 26.4656 21.888C26.4656 23.808 25.7083 25.312 24.1936 26.4C22.679 27.4667 20.4496 28 17.5056 28H5.92163ZM11.0736 24.096H17.1216C18.4656 24.096 19.479 23.8827 20.1616 23.456C20.8656 23.008 21.2176 22.304 21.2176 21.344C21.2176 20.4053 20.8656 19.712 20.1616 19.264C19.479 18.7947 18.4656 18.56 17.1216 18.56H10.6896V14.784H16.2256C17.4843 14.784 18.4443 14.5707 19.1056 14.144C19.7883 13.696 20.1296 13.024 20.1296 12.128C20.1296 11.2533 19.7883 10.6027 19.1056 10.176C18.4443 9.728 17.4843 9.504 16.2256 9.504H11.0736V24.096Z" fill="#024A59"/>
</g>
<defs>
<clipPath id="clip0_180_105">
<rect width="32" height="32" fill="white"/>
</clipPath>
</defs>
</svg>
