<svg width="529" height="426" viewBox="0 0 529 426" fill="none" xmlns="http://www.w3.org/2000/svg">
<g filter="url(#filter0_d_164_21)">
<path d="M109.992 62.512C106.323 62.512 103.059 61.744 100.2 60.208C97.384 58.672 95.144 56.5813 93.48 53.936C91.8587 51.248 91.048 48.1973 91.048 44.784C91.048 41.328 91.8587 38.2773 93.48 35.632C95.144 32.944 97.384 30.8533 100.2 29.36C103.059 27.824 106.323 27.056 109.992 27.056C113.619 27.056 116.861 27.824 119.72 29.36C122.579 30.8533 124.819 32.9227 126.44 35.568C128.061 38.2133 128.872 41.2853 128.872 44.784C128.872 48.1973 128.061 51.248 126.44 53.936C124.819 56.5813 122.579 58.672 119.72 60.208C116.861 61.744 113.619 62.512 109.992 62.512ZM109.992 54.32C111.656 54.32 113.149 53.936 114.472 53.168C115.795 52.4 116.84 51.312 117.608 49.904C118.376 48.4533 118.76 46.7467 118.76 44.784C118.76 42.7787 118.376 41.072 117.608 39.664C116.84 38.256 115.795 37.168 114.472 36.4C113.149 35.632 111.656 35.248 109.992 35.248C108.328 35.248 106.835 35.632 105.512 36.4C104.189 37.168 103.123 38.256 102.312 39.664C101.544 41.072 101.16 42.7787 101.16 44.784C101.16 46.7467 101.544 48.4533 102.312 49.904C103.123 51.312 104.189 52.4 105.512 53.168C106.835 53.936 108.328 54.32 109.992 54.32ZM151.93 62.512C148.26 62.512 144.996 61.744 142.138 60.208C139.322 58.672 137.082 56.5813 135.418 53.936C133.796 51.248 132.986 48.1973 132.986 44.784C132.986 41.328 133.796 38.2773 135.418 35.632C137.082 32.944 139.322 30.8533 142.138 29.36C144.996 27.824 148.26 27.056 151.93 27.056C155.556 27.056 158.799 27.824 161.658 29.36C164.516 30.8533 166.756 32.9227 168.378 35.568C169.999 38.2133 170.81 41.2853 170.81 44.784C170.81 48.1973 169.999 51.248 168.378 53.936C166.756 56.5813 164.516 58.672 161.658 60.208C158.799 61.744 155.556 62.512 151.93 62.512ZM151.93 54.32C153.594 54.32 155.087 53.936 156.41 53.168C157.732 52.4 158.778 51.312 159.546 49.904C160.314 48.4533 160.698 46.7467 160.698 44.784C160.698 42.7787 160.314 41.072 159.546 39.664C158.778 38.256 157.732 37.168 156.41 36.4C155.087 35.632 153.594 35.248 151.93 35.248C150.266 35.248 148.772 35.632 147.45 36.4C146.127 37.168 145.06 38.256 144.25 39.664C143.482 41.072 143.098 42.7787 143.098 44.784C143.098 46.7467 143.482 48.4533 144.25 49.904C145.06 51.312 146.127 52.4 147.45 53.168C148.772 53.936 150.266 54.32 151.93 54.32ZM185.739 54.96L185.995 42.8L202.059 27.568H213.963L198.539 43.248L193.355 47.472L185.739 54.96ZM177.483 62V14.512H187.467V62H177.483ZM203.147 62L191.499 47.536L197.771 39.792L215.243 62H203.147ZM225.543 62L213.127 27.568H222.535L232.839 57.2H228.359L239.111 27.568H247.559L257.991 57.2H253.511L264.135 27.568H272.967L260.487 62H250.823L241.671 36.592H244.615L235.143 62H225.543ZM293.055 62.512C289.385 62.512 286.121 61.744 283.263 60.208C280.447 58.672 278.207 56.5813 276.543 53.936C274.921 51.248 274.111 48.1973 274.111 44.784C274.111 41.328 274.921 38.2773 276.543 35.632C278.207 32.944 280.447 30.8533 283.263 29.36C286.121 27.824 289.385 27.056 293.055 27.056C296.681 27.056 299.924 27.824 302.783 29.36C305.641 30.8533 307.881 32.9227 309.503 35.568C311.124 38.2133 311.935 41.2853 311.935 44.784C311.935 48.1973 311.124 51.248 309.503 53.936C307.881 56.5813 305.641 58.672 302.783 60.208C299.924 61.744 296.681 62.512 293.055 62.512ZM293.055 54.32C294.719 54.32 296.212 53.936 297.535 53.168C298.857 52.4 299.903 51.312 300.671 49.904C301.439 48.4533 301.823 46.7467 301.823 44.784C301.823 42.7787 301.439 41.072 300.671 39.664C299.903 38.256 298.857 37.168 297.535 36.4C296.212 35.632 294.719 35.248 293.055 35.248C291.391 35.248 289.897 35.632 288.575 36.4C287.252 37.168 286.185 38.256 285.375 39.664C284.607 41.072 284.223 42.7787 284.223 44.784C284.223 46.7467 284.607 48.4533 285.375 49.904C286.185 51.312 287.252 52.4 288.575 53.168C289.897 53.936 291.391 54.32 293.055 54.32ZM318.608 62V27.568H328.144V37.296L326.8 34.48C327.824 32.048 329.467 30.2133 331.728 28.976C333.989 27.696 336.741 27.056 339.984 27.056V36.272C339.557 36.2293 339.173 36.208 338.832 36.208C338.491 36.1653 338.128 36.144 337.744 36.144C335.013 36.144 332.795 36.9333 331.088 38.512C329.424 40.048 328.592 42.4587 328.592 45.744V62H318.608ZM390.079 27.056C392.81 27.056 395.22 27.6107 397.311 28.72C399.444 29.7867 401.108 31.4507 402.303 33.712C403.54 35.9307 404.159 38.7893 404.159 42.288V62H394.175V43.824C394.175 41.0507 393.599 39.0027 392.447 37.68C391.295 36.3573 389.674 35.696 387.583 35.696C386.132 35.696 384.831 36.0373 383.679 36.72C382.527 37.36 381.631 38.3413 380.991 39.664C380.351 40.9867 380.031 42.672 380.031 44.72V62H370.047V43.824C370.047 41.0507 369.471 39.0027 368.319 37.68C367.21 36.3573 365.61 35.696 363.519 35.696C362.068 35.696 360.767 36.0373 359.615 36.72C358.463 37.36 357.567 38.3413 356.927 39.664C356.287 40.9867 355.967 42.672 355.967 44.72V62H345.983V27.568H355.519V36.976L353.727 34.224C354.922 31.8773 356.607 30.1067 358.783 28.912C361.002 27.6747 363.519 27.056 366.335 27.056C369.492 27.056 372.244 27.8667 374.591 29.488C376.98 31.0667 378.559 33.4987 379.327 36.784L375.807 35.824C376.959 33.136 378.794 31.0027 381.311 29.424C383.871 27.8453 386.794 27.056 390.079 27.056ZM412.276 35.376L411.636 17.2H420.148L419.444 35.376H412.276ZM439.442 62.512C436.498 62.512 433.661 62.1707 430.93 61.488C428.242 60.7627 426.109 59.8667 424.53 58.8L427.858 51.632C429.437 52.6133 431.293 53.424 433.426 54.064C435.602 54.6613 437.735 54.96 439.826 54.96C442.13 54.96 443.751 54.6827 444.69 54.128C445.671 53.5733 446.162 52.8053 446.162 51.824C446.162 51.0133 445.778 50.416 445.01 50.032C444.285 49.6053 443.303 49.2853 442.066 49.072C440.829 48.8587 439.463 48.6453 437.97 48.432C436.519 48.2187 435.047 47.9413 433.554 47.6C432.061 47.216 430.695 46.6613 429.458 45.936C428.221 45.2107 427.218 44.2293 426.45 42.992C425.725 41.7547 425.362 40.1547 425.362 38.192C425.362 36.016 425.981 34.096 427.218 32.432C428.498 30.768 430.333 29.4667 432.722 28.528C435.111 27.5467 437.97 27.056 441.298 27.056C443.645 27.056 446.034 27.312 448.466 27.824C450.898 28.336 452.925 29.0827 454.546 30.064L451.218 37.168C449.554 36.1867 447.869 35.5253 446.162 35.184C444.498 34.8 442.877 34.608 441.298 34.608C439.079 34.608 437.458 34.9067 436.434 35.504C435.41 36.1013 434.898 36.8693 434.898 37.808C434.898 38.6613 435.261 39.3013 435.986 39.728C436.754 40.1547 437.757 40.496 438.994 40.752C440.231 41.008 441.575 41.2427 443.026 41.456C444.519 41.6267 446.013 41.904 447.506 42.288C448.999 42.672 450.343 43.2267 451.538 43.952C452.775 44.6347 453.778 45.5947 454.546 46.832C455.314 48.0267 455.698 49.6053 455.698 51.568C455.698 53.7013 455.058 55.6 453.778 57.264C452.498 58.8853 450.642 60.1653 448.21 61.104C445.821 62.0427 442.898 62.512 439.442 62.512Z" fill="white"/>
<path d="M114.536 112.056C117.267 112.056 119.699 112.611 121.832 113.72C124.008 114.787 125.715 116.451 126.952 118.712C128.189 120.931 128.808 123.789 128.808 127.288V147H118.824V128.824C118.824 126.051 118.205 124.003 116.968 122.68C115.773 121.357 114.067 120.696 111.848 120.696C110.269 120.696 108.84 121.037 107.56 121.72C106.323 122.36 105.341 123.363 104.616 124.728C103.933 126.093 103.592 127.843 103.592 129.976V147H93.608V112.568H103.144V122.104L101.352 119.224C102.589 116.92 104.36 115.149 106.664 113.912C108.968 112.675 111.592 112.056 114.536 112.056ZM137.858 147V99.512H147.842V147H137.858ZM157.108 147V112.568H167.092V147H157.108ZM162.1 107.768C160.265 107.768 158.772 107.235 157.62 106.168C156.468 105.101 155.892 103.779 155.892 102.2C155.892 100.621 156.468 99.2987 157.62 98.232C158.772 97.1653 160.265 96.632 162.1 96.632C163.935 96.632 165.428 97.144 166.58 98.168C167.732 99.1493 168.308 100.429 168.308 102.008C168.308 103.672 167.732 105.059 166.58 106.168C165.471 107.235 163.977 107.768 162.1 107.768ZM197.286 112.056C200.017 112.056 202.449 112.611 204.582 113.72C206.758 114.787 208.465 116.451 209.702 118.712C210.939 120.931 211.558 123.789 211.558 127.288V147H201.574V128.824C201.574 126.051 200.955 124.003 199.718 122.68C198.523 121.357 196.817 120.696 194.598 120.696C193.019 120.696 191.59 121.037 190.31 121.72C189.073 122.36 188.091 123.363 187.366 124.728C186.683 126.093 186.342 127.843 186.342 129.976V147H176.358V112.568H185.894V122.104L184.102 119.224C185.339 116.92 187.11 115.149 189.414 113.912C191.718 112.675 194.342 112.056 197.286 112.056ZM237.946 147.512C234.021 147.512 230.565 146.744 227.578 145.208C224.634 143.672 222.351 141.581 220.73 138.936C219.109 136.248 218.298 133.197 218.298 129.784C218.298 126.328 219.087 123.277 220.666 120.632C222.287 117.944 224.485 115.853 227.258 114.36C230.031 112.824 233.167 112.056 236.666 112.056C240.037 112.056 243.066 112.781 245.754 114.232C248.485 115.64 250.639 117.688 252.218 120.376C253.797 123.021 254.586 126.2 254.586 129.912C254.586 130.296 254.565 130.744 254.522 131.256C254.479 131.725 254.437 132.173 254.394 132.6H226.426V126.776H249.146L245.306 128.504C245.306 126.712 244.943 125.155 244.218 123.832C243.493 122.509 242.49 121.485 241.21 120.76C239.93 119.992 238.437 119.608 236.73 119.608C235.023 119.608 233.509 119.992 232.186 120.76C230.906 121.485 229.903 122.531 229.178 123.896C228.453 125.219 228.09 126.797 228.09 128.632V130.168C228.09 132.045 228.495 133.709 229.306 135.16C230.159 136.568 231.333 137.656 232.826 138.424C234.362 139.149 236.154 139.512 238.202 139.512C240.037 139.512 241.637 139.235 243.002 138.68C244.41 138.125 245.69 137.293 246.842 136.184L252.154 141.944C250.575 143.736 248.591 145.123 246.202 146.104C243.813 147.043 241.061 147.512 237.946 147.512Z" fill="white"/>
<path d="M113.96 232.512C110.931 232.512 108.328 231.872 106.152 230.592C103.976 229.312 102.312 227.371 101.16 224.768C100.008 222.123 99.432 218.795 99.432 214.784C99.432 210.731 100.029 207.403 101.224 204.8C102.461 202.197 104.168 200.256 106.344 198.976C108.52 197.696 111.059 197.056 113.96 197.056C117.203 197.056 120.104 197.781 122.664 199.232C125.267 200.683 127.315 202.731 128.808 205.376C130.344 208.021 131.112 211.157 131.112 214.784C131.112 218.368 130.344 221.483 128.808 224.128C127.315 226.773 125.267 228.843 122.664 230.336C120.104 231.787 117.203 232.512 113.96 232.512ZM93.608 232V184.512H103.592V204.544L102.952 214.72L103.144 224.96V232H93.608ZM112.232 224.32C113.896 224.32 115.368 223.936 116.648 223.168C117.971 222.4 119.016 221.312 119.784 219.904C120.595 218.453 121 216.747 121 214.784C121 212.779 120.595 211.072 119.784 209.664C119.016 208.256 117.971 207.168 116.648 206.4C115.368 205.632 113.896 205.248 112.232 205.248C110.568 205.248 109.075 205.632 107.752 206.4C106.429 207.168 105.384 208.256 104.616 209.664C103.848 211.072 103.464 212.779 103.464 214.784C103.464 216.747 103.848 218.453 104.616 219.904C105.384 221.312 106.429 222.4 107.752 223.168C109.075 223.936 110.568 224.32 112.232 224.32ZM149.38 232.512C146.436 232.512 143.598 232.171 140.868 231.488C138.18 230.763 136.046 229.867 134.468 228.8L137.796 221.632C139.374 222.613 141.23 223.424 143.364 224.064C145.54 224.661 147.673 224.96 149.764 224.96C152.068 224.96 153.689 224.683 154.628 224.128C155.609 223.573 156.1 222.805 156.1 221.824C156.1 221.013 155.716 220.416 154.948 220.032C154.222 219.605 153.241 219.285 152.003 219.072C150.766 218.859 149.401 218.645 147.908 218.432C146.457 218.219 144.985 217.941 143.492 217.6C141.998 217.216 140.633 216.661 139.396 215.936C138.158 215.211 137.156 214.229 136.388 212.992C135.662 211.755 135.299 210.155 135.299 208.192C135.299 206.016 135.918 204.096 137.156 202.432C138.436 200.768 140.27 199.467 142.66 198.528C145.049 197.547 147.908 197.056 151.236 197.056C153.582 197.056 155.972 197.312 158.404 197.824C160.836 198.336 162.862 199.083 164.484 200.064L161.156 207.168C159.492 206.187 157.806 205.525 156.1 205.184C154.436 204.8 152.814 204.608 151.236 204.608C149.017 204.608 147.396 204.907 146.372 205.504C145.348 206.101 144.836 206.869 144.836 207.808C144.836 208.661 145.198 209.301 145.924 209.728C146.692 210.155 147.694 210.496 148.932 210.752C150.169 211.008 151.513 211.243 152.964 211.456C154.457 211.627 155.95 211.904 157.444 212.288C158.937 212.672 160.281 213.227 161.476 213.952C162.713 214.635 163.716 215.595 164.484 216.832C165.252 218.027 165.636 219.605 165.636 221.568C165.636 223.701 164.996 225.6 163.716 227.264C162.436 228.885 160.58 230.165 158.148 231.104C155.758 232.043 152.836 232.512 149.38 232.512ZM188.884 232.512C184.958 232.512 181.502 231.744 178.516 230.208C175.572 228.672 173.289 226.581 171.668 223.936C170.046 221.248 169.236 218.197 169.236 214.784C169.236 211.328 170.025 208.277 171.604 205.632C173.225 202.944 175.422 200.853 178.196 199.36C180.969 197.824 184.105 197.056 187.604 197.056C190.974 197.056 194.004 197.781 196.692 199.232C199.422 200.64 201.577 202.688 203.156 205.376C204.734 208.021 205.524 211.2 205.524 214.912C205.524 215.296 205.502 215.744 205.46 216.256C205.417 216.725 205.374 217.173 205.332 217.6H177.364V211.776H200.083L196.244 213.504C196.244 211.712 195.881 210.155 195.156 208.832C194.43 207.509 193.428 206.485 192.148 205.76C190.868 204.992 189.374 204.608 187.668 204.608C185.961 204.608 184.446 204.992 183.124 205.76C181.844 206.485 180.841 207.531 180.116 208.896C179.39 210.219 179.028 211.797 179.028 213.632V215.168C179.028 217.045 179.433 218.709 180.244 220.16C181.097 221.568 182.27 222.656 183.764 223.424C185.3 224.149 187.092 224.512 189.14 224.512C190.974 224.512 192.574 224.235 193.94 223.68C195.348 223.125 196.628 222.293 197.78 221.184L203.092 226.944C201.513 228.736 199.529 230.123 197.14 231.104C194.75 232.043 191.998 232.512 188.884 232.512ZM223.755 232.512C220.811 232.512 217.973 232.171 215.243 231.488C212.555 230.763 210.421 229.867 208.843 228.8L212.171 221.632C213.749 222.613 215.605 223.424 217.739 224.064C219.915 224.661 222.048 224.96 224.139 224.96C226.443 224.96 228.064 224.683 229.003 224.128C229.984 223.573 230.475 222.805 230.475 221.824C230.475 221.013 230.091 220.416 229.323 220.032C228.597 219.605 227.616 219.285 226.378 219.072C225.141 218.859 223.776 218.645 222.283 218.432C220.832 218.219 219.36 217.941 217.867 217.6C216.373 217.216 215.008 216.661 213.771 215.936C212.533 215.211 211.531 214.229 210.763 212.992C210.037 211.755 209.674 210.155 209.674 208.192C209.674 206.016 210.293 204.096 211.531 202.432C212.811 200.768 214.645 199.467 217.035 198.528C219.424 197.547 222.283 197.056 225.611 197.056C227.957 197.056 230.347 197.312 232.779 197.824C235.211 198.336 237.237 199.083 238.859 200.064L235.531 207.168C233.867 206.187 232.181 205.525 230.475 205.184C228.811 204.8 227.189 204.608 225.611 204.608C223.392 204.608 221.771 204.907 220.747 205.504C219.723 206.101 219.211 206.869 219.211 207.808C219.211 208.661 219.573 209.301 220.299 209.728C221.067 210.155 222.069 210.496 223.307 210.752C224.544 211.008 225.888 211.243 227.339 211.456C228.832 211.627 230.325 211.904 231.819 212.288C233.312 212.672 234.656 213.227 235.851 213.952C237.088 214.635 238.091 215.595 238.859 216.832C239.627 218.027 240.011 219.605 240.011 221.568C240.011 223.701 239.371 225.6 238.091 227.264C236.811 228.885 234.955 230.165 232.523 231.104C230.133 232.043 227.211 232.512 223.755 232.512ZM257.755 232.512C254.811 232.512 251.973 232.171 249.243 231.488C246.555 230.763 244.421 229.867 242.843 228.8L246.171 221.632C247.749 222.613 249.605 223.424 251.739 224.064C253.915 224.661 256.048 224.96 258.139 224.96C260.443 224.96 262.064 224.683 263.003 224.128C263.984 223.573 264.475 222.805 264.475 221.824C264.475 221.013 264.091 220.416 263.323 220.032C262.597 219.605 261.616 219.285 260.378 219.072C259.141 218.859 257.776 218.645 256.283 218.432C254.832 218.219 253.36 217.941 251.867 217.6C250.373 217.216 249.008 216.661 247.771 215.936C246.533 215.211 245.531 214.229 244.763 212.992C244.037 211.755 243.674 210.155 243.674 208.192C243.674 206.016 244.293 204.096 245.531 202.432C246.811 200.768 248.645 199.467 251.035 198.528C253.424 197.547 256.283 197.056 259.611 197.056C261.957 197.056 264.347 197.312 266.779 197.824C269.211 198.336 271.237 199.083 272.859 200.064L269.531 207.168C267.867 206.187 266.181 205.525 264.475 205.184C262.811 204.8 261.189 204.608 259.611 204.608C257.392 204.608 255.771 204.907 254.747 205.504C253.723 206.101 253.211 206.869 253.211 207.808C253.211 208.661 253.573 209.301 254.299 209.728C255.067 210.155 256.069 210.496 257.307 210.752C258.544 211.008 259.888 211.243 261.339 211.456C262.832 211.627 264.325 211.904 265.819 212.288C267.312 212.672 268.656 213.227 269.851 213.952C271.088 214.635 272.091 215.595 272.859 216.832C273.627 218.027 274.011 219.605 274.011 221.568C274.011 223.701 273.371 225.6 272.091 227.264C270.811 228.885 268.955 230.165 266.523 231.104C264.133 232.043 261.211 232.512 257.755 232.512ZM280.171 232V197.568H290.155V232H280.171ZM285.163 192.768C283.328 192.768 281.835 192.235 280.683 191.168C279.531 190.101 278.955 188.779 278.955 187.2C278.955 185.621 279.531 184.299 280.683 183.232C281.835 182.165 283.328 181.632 285.163 181.632C286.997 181.632 288.491 182.144 289.643 183.168C290.795 184.149 291.371 185.429 291.371 187.008C291.371 188.672 290.795 190.059 289.643 191.168C288.533 192.235 287.04 192.768 285.163 192.768ZM315.805 232.512C312.135 232.512 308.871 231.744 306.013 230.208C303.197 228.672 300.957 226.581 299.293 223.936C297.671 221.248 296.861 218.197 296.861 214.784C296.861 211.328 297.671 208.277 299.293 205.632C300.957 202.944 303.197 200.853 306.013 199.36C308.871 197.824 312.135 197.056 315.805 197.056C319.431 197.056 322.674 197.824 325.533 199.36C328.391 200.853 330.631 202.923 332.253 205.568C333.874 208.213 334.685 211.285 334.685 214.784C334.685 218.197 333.874 221.248 332.253 223.936C330.631 226.581 328.391 228.672 325.533 230.208C322.674 231.744 319.431 232.512 315.805 232.512ZM315.805 224.32C317.469 224.32 318.962 223.936 320.285 223.168C321.607 222.4 322.653 221.312 323.421 219.904C324.189 218.453 324.573 216.747 324.573 214.784C324.573 212.779 324.189 211.072 323.421 209.664C322.653 208.256 321.607 207.168 320.285 206.4C318.962 205.632 317.469 205.248 315.805 205.248C314.141 205.248 312.647 205.632 311.325 206.4C310.002 207.168 308.935 208.256 308.125 209.664C307.357 211.072 306.973 212.779 306.973 214.784C306.973 216.747 307.357 218.453 308.125 219.904C308.935 221.312 310.002 222.4 311.325 223.168C312.647 223.936 314.141 224.32 315.805 224.32ZM362.286 197.056C365.017 197.056 367.449 197.611 369.582 198.72C371.758 199.787 373.465 201.451 374.702 203.712C375.939 205.931 376.558 208.789 376.558 212.288V232H366.574V213.824C366.574 211.051 365.955 209.003 364.718 207.68C363.523 206.357 361.817 205.696 359.598 205.696C358.019 205.696 356.59 206.037 355.31 206.72C354.073 207.36 353.091 208.363 352.366 209.728C351.683 211.093 351.342 212.843 351.342 214.976V232H341.358V197.568H350.894V207.104L349.102 204.224C350.339 201.92 352.11 200.149 354.414 198.912C356.718 197.675 359.342 197.056 362.286 197.056ZM397.192 232.512C394.248 232.512 391.411 232.171 388.68 231.488C385.992 230.763 383.859 229.867 382.28 228.8L385.608 221.632C387.187 222.613 389.043 223.424 391.176 224.064C393.352 224.661 395.485 224.96 397.576 224.96C399.88 224.96 401.501 224.683 402.44 224.128C403.421 223.573 403.912 222.805 403.912 221.824C403.912 221.013 403.528 220.416 402.76 220.032C402.035 219.605 401.053 219.285 399.816 219.072C398.579 218.859 397.213 218.645 395.72 218.432C394.269 218.219 392.797 217.941 391.304 217.6C389.811 217.216 388.445 216.661 387.208 215.936C385.971 215.211 384.968 214.229 384.2 212.992C383.475 211.755 383.112 210.155 383.112 208.192C383.112 206.016 383.731 204.096 384.968 202.432C386.248 200.768 388.083 199.467 390.472 198.528C392.861 197.547 395.72 197.056 399.048 197.056C401.395 197.056 403.784 197.312 406.216 197.824C408.648 198.336 410.675 199.083 412.296 200.064L408.968 207.168C407.304 206.187 405.619 205.525 403.912 205.184C402.248 204.8 400.627 204.608 399.048 204.608C396.829 204.608 395.208 204.907 394.184 205.504C393.16 206.101 392.648 206.869 392.648 207.808C392.648 208.661 393.011 209.301 393.736 209.728C394.504 210.155 395.507 210.496 396.744 210.752C397.981 211.008 399.325 211.243 400.776 211.456C402.269 211.627 403.763 211.904 405.256 212.288C406.749 212.672 408.093 213.227 409.288 213.952C410.525 214.635 411.528 215.595 412.296 216.832C413.064 218.027 413.448 219.605 413.448 221.568C413.448 223.701 412.808 225.6 411.528 227.264C410.248 228.885 408.392 230.165 405.96 231.104C403.571 232.043 400.648 232.512 397.192 232.512ZM423.384 209.536C421.677 209.536 420.205 208.96 418.968 207.808C417.773 206.613 417.176 205.099 417.176 203.264C417.176 201.429 417.773 199.957 418.968 198.848C420.205 197.696 421.677 197.12 423.384 197.12C425.133 197.12 426.605 197.696 427.8 198.848C428.995 199.957 429.592 201.429 429.592 203.264C429.592 205.099 428.995 206.613 427.8 207.808C426.605 208.96 425.133 209.536 423.384 209.536ZM423.384 232.512C421.677 232.512 420.205 231.936 418.968 230.784C417.773 229.589 417.176 228.075 417.176 226.24C417.176 224.405 417.773 222.933 418.968 221.824C420.205 220.672 421.677 220.096 423.384 220.096C425.133 220.096 426.605 220.672 427.8 221.824C428.995 222.933 429.592 224.405 429.592 226.24C429.592 228.075 428.995 229.589 427.8 230.784C426.605 231.936 425.133 232.512 423.384 232.512Z" fill="white"/>
<path d="M109.992 317.512C106.323 317.512 103.059 316.744 100.2 315.208C97.384 313.672 95.144 311.581 93.48 308.936C91.8587 306.248 91.048 303.197 91.048 299.784C91.048 296.328 91.8587 293.277 93.48 290.632C95.144 287.944 97.384 285.853 100.2 284.36C103.059 282.824 106.323 282.056 109.992 282.056C113.619 282.056 116.861 282.824 119.72 284.36C122.579 285.853 124.819 287.923 126.44 290.568C128.061 293.213 128.872 296.285 128.872 299.784C128.872 303.197 128.061 306.248 126.44 308.936C124.819 311.581 122.579 313.672 119.72 315.208C116.861 316.744 113.619 317.512 109.992 317.512ZM109.992 309.32C111.656 309.32 113.149 308.936 114.472 308.168C115.795 307.4 116.84 306.312 117.608 304.904C118.376 303.453 118.76 301.747 118.76 299.784C118.76 297.779 118.376 296.072 117.608 294.664C116.84 293.256 115.795 292.168 114.472 291.4C113.149 290.632 111.656 290.248 109.992 290.248C108.328 290.248 106.835 290.632 105.512 291.4C104.189 292.168 103.123 293.256 102.312 294.664C101.544 296.072 101.16 297.779 101.16 299.784C101.16 301.747 101.544 303.453 102.312 304.904C103.123 306.312 104.189 307.4 105.512 308.168C106.835 308.936 108.328 309.32 109.992 309.32ZM151.93 317.512C148.26 317.512 144.996 316.744 142.138 315.208C139.322 313.672 137.082 311.581 135.418 308.936C133.796 306.248 132.986 303.197 132.986 299.784C132.986 296.328 133.796 293.277 135.418 290.632C137.082 287.944 139.322 285.853 142.138 284.36C144.996 282.824 148.26 282.056 151.93 282.056C155.556 282.056 158.799 282.824 161.658 284.36C164.516 285.853 166.756 287.923 168.378 290.568C169.999 293.213 170.81 296.285 170.81 299.784C170.81 303.197 169.999 306.248 168.378 308.936C166.756 311.581 164.516 313.672 161.658 315.208C158.799 316.744 155.556 317.512 151.93 317.512ZM151.93 309.32C153.594 309.32 155.087 308.936 156.41 308.168C157.732 307.4 158.778 306.312 159.546 304.904C160.314 303.453 160.698 301.747 160.698 299.784C160.698 297.779 160.314 296.072 159.546 294.664C158.778 293.256 157.732 292.168 156.41 291.4C155.087 290.632 153.594 290.248 151.93 290.248C150.266 290.248 148.772 290.632 147.45 291.4C146.127 292.168 145.06 293.256 144.25 294.664C143.482 296.072 143.098 297.779 143.098 299.784C143.098 301.747 143.482 303.453 144.25 304.904C145.06 306.312 146.127 307.4 147.45 308.168C148.772 308.936 150.266 309.32 151.93 309.32ZM185.739 309.96L185.995 297.8L202.059 282.568H213.963L198.539 298.248L193.355 302.472L185.739 309.96ZM177.483 317V269.512H187.467V317H177.483ZM203.147 317L191.499 302.536L197.771 294.792L215.243 317H203.147ZM230.192 317.512C227.248 317.512 224.411 317.171 221.68 316.488C218.992 315.763 216.859 314.867 215.28 313.8L218.608 306.632C220.187 307.613 222.043 308.424 224.176 309.064C226.352 309.661 228.485 309.96 230.576 309.96C232.88 309.96 234.501 309.683 235.44 309.128C236.421 308.573 236.912 307.805 236.912 306.824C236.912 306.013 236.528 305.416 235.76 305.032C235.035 304.605 234.053 304.285 232.816 304.072C231.579 303.859 230.213 303.645 228.72 303.432C227.269 303.219 225.797 302.941 224.304 302.6C222.811 302.216 221.445 301.661 220.208 300.936C218.971 300.211 217.968 299.229 217.2 297.992C216.475 296.755 216.112 295.155 216.112 293.192C216.112 291.016 216.731 289.096 217.968 287.432C219.248 285.768 221.083 284.467 223.472 283.528C225.861 282.547 228.72 282.056 232.048 282.056C234.395 282.056 236.784 282.312 239.216 282.824C241.648 283.336 243.675 284.083 245.296 285.064L241.968 292.168C240.304 291.187 238.619 290.525 236.912 290.184C235.248 289.8 233.627 289.608 232.048 289.608C229.829 289.608 228.208 289.907 227.184 290.504C226.16 291.101 225.648 291.869 225.648 292.808C225.648 293.661 226.011 294.301 226.736 294.728C227.504 295.155 228.507 295.496 229.744 295.752C230.981 296.008 232.325 296.243 233.776 296.456C235.269 296.627 236.763 296.904 238.256 297.288C239.749 297.672 241.093 298.227 242.288 298.952C243.525 299.635 244.528 300.595 245.296 301.832C246.064 303.027 246.448 304.605 246.448 306.568C246.448 308.701 245.808 310.6 244.528 312.264C243.248 313.885 241.392 315.165 238.96 316.104C236.571 317.043 233.648 317.512 230.192 317.512Z" fill="white"/>
<path d="M108.136 402.512C105.277 402.512 102.717 401.957 100.456 400.848C98.2373 399.739 96.5093 398.053 95.272 395.792C94.0347 393.488 93.416 390.565 93.416 387.024V367.568H103.4V385.552C103.4 388.411 103.997 390.523 105.192 391.888C106.429 393.211 108.157 393.872 110.376 393.872C111.912 393.872 113.277 393.552 114.472 392.912C115.667 392.229 116.605 391.205 117.288 389.84C117.971 388.432 118.312 386.683 118.312 384.592V367.568H128.296V402H118.824V392.528L120.552 395.28C119.4 397.669 117.693 399.483 115.432 400.72C113.213 401.915 110.781 402.512 108.136 402.512ZM157.898 402.512C154.996 402.512 152.458 401.872 150.282 400.592C148.106 399.312 146.399 397.371 145.162 394.768C143.967 392.123 143.37 388.795 143.37 384.784C143.37 380.731 143.946 377.403 145.098 374.8C146.25 372.197 147.914 370.256 150.09 368.976C152.266 367.696 154.868 367.056 157.898 367.056C161.14 367.056 164.042 367.803 166.602 369.296C169.204 370.747 171.252 372.795 172.746 375.44C174.282 378.085 175.05 381.2 175.05 384.784C175.05 388.411 174.282 391.547 172.746 394.192C171.252 396.837 169.204 398.885 166.602 400.336C164.042 401.787 161.14 402.512 157.898 402.512ZM137.546 414.416V367.568H147.082V374.608L146.89 384.848L147.53 395.024V414.416H137.546ZM156.17 394.32C157.834 394.32 159.306 393.936 160.586 393.168C161.908 392.4 162.954 391.312 163.722 389.904C164.532 388.453 164.938 386.747 164.938 384.784C164.938 382.779 164.532 381.072 163.722 379.664C162.954 378.256 161.908 377.168 160.586 376.4C159.306 375.632 157.834 375.248 156.17 375.248C154.506 375.248 153.012 375.632 151.69 376.4C150.367 377.168 149.322 378.256 148.554 379.664C147.786 381.072 147.402 382.779 147.402 384.784C147.402 386.747 147.786 388.453 148.554 389.904C149.322 391.312 150.367 392.4 151.69 393.168C153.012 393.936 154.506 394.32 156.17 394.32ZM198.821 402.512C194.896 402.512 191.44 401.744 188.453 400.208C185.509 398.672 183.226 396.581 181.605 393.936C179.984 391.248 179.173 388.197 179.173 384.784C179.173 381.328 179.962 378.277 181.541 375.632C183.162 372.944 185.36 370.853 188.133 369.36C190.906 367.824 194.042 367.056 197.541 367.056C200.912 367.056 203.941 367.781 206.629 369.232C209.36 370.64 211.514 372.688 213.093 375.376C214.672 378.021 215.461 381.2 215.461 384.912C215.461 385.296 215.44 385.744 215.397 386.256C215.354 386.725 215.312 387.173 215.269 387.6H187.301V381.776H210.021L206.181 383.504C206.181 381.712 205.818 380.155 205.093 378.832C204.368 377.509 203.365 376.485 202.085 375.76C200.805 374.992 199.312 374.608 197.605 374.608C195.898 374.608 194.384 374.992 193.061 375.76C191.781 376.485 190.778 377.531 190.053 378.896C189.328 380.219 188.965 381.797 188.965 383.632V385.168C188.965 387.045 189.37 388.709 190.181 390.16C191.034 391.568 192.208 392.656 193.701 393.424C195.237 394.149 197.029 394.512 199.077 394.512C200.912 394.512 202.512 394.235 203.877 393.68C205.285 393.125 206.565 392.293 207.717 391.184L213.029 396.944C211.45 398.736 209.466 400.123 207.077 401.104C204.688 402.043 201.936 402.512 198.821 402.512ZM222.108 402V367.568H231.644V377.296L230.3 374.48C231.324 372.048 232.967 370.213 235.228 368.976C237.489 367.696 240.241 367.056 243.484 367.056V376.272C243.057 376.229 242.673 376.208 242.332 376.208C241.991 376.165 241.628 376.144 241.244 376.144C238.513 376.144 236.295 376.933 234.588 378.512C232.924 380.048 232.092 382.459 232.092 385.744V402H222.108ZM261.255 402.512C258.311 402.512 255.473 402.171 252.743 401.488C250.055 400.763 247.921 399.867 246.343 398.8L249.671 391.632C251.249 392.613 253.105 393.424 255.239 394.064C257.415 394.661 259.548 394.96 261.639 394.96C263.943 394.96 265.564 394.683 266.503 394.128C267.484 393.573 267.975 392.805 267.975 391.824C267.975 391.013 267.591 390.416 266.823 390.032C266.097 389.605 265.116 389.285 263.878 389.072C262.641 388.859 261.276 388.645 259.783 388.432C258.332 388.219 256.86 387.941 255.367 387.6C253.873 387.216 252.508 386.661 251.271 385.936C250.033 385.211 249.031 384.229 248.263 382.992C247.537 381.755 247.174 380.155 247.174 378.192C247.174 376.016 247.793 374.096 249.031 372.432C250.311 370.768 252.145 369.467 254.535 368.528C256.924 367.547 259.783 367.056 263.111 367.056C265.457 367.056 267.847 367.312 270.279 367.824C272.711 368.336 274.737 369.083 276.359 370.064L273.031 377.168C271.367 376.187 269.681 375.525 267.975 375.184C266.311 374.8 264.689 374.608 263.111 374.608C260.892 374.608 259.271 374.907 258.247 375.504C257.223 376.101 256.711 376.869 256.711 377.808C256.711 378.661 257.073 379.301 257.799 379.728C258.567 380.155 259.569 380.496 260.807 380.752C262.044 381.008 263.388 381.243 264.839 381.456C266.332 381.627 267.825 381.904 269.319 382.288C270.812 382.672 272.156 383.227 273.351 383.952C274.588 384.635 275.591 385.595 276.359 386.832C277.127 388.027 277.511 389.605 277.511 391.568C277.511 393.701 276.871 395.6 275.591 397.264C274.311 398.885 272.455 400.165 270.023 401.104C267.633 402.043 264.711 402.512 261.255 402.512ZM297.751 402.512C293.697 402.512 290.54 401.488 288.279 399.44C286.017 397.349 284.887 394.256 284.887 390.16V359.952H294.871V390.032C294.871 391.483 295.255 392.613 296.023 393.424C296.791 394.192 297.836 394.576 299.159 394.576C300.737 394.576 302.081 394.149 303.191 393.296L305.879 400.336C304.855 401.061 303.617 401.616 302.167 402C300.759 402.341 299.287 402.512 297.751 402.512ZM279.575 376.016V368.336H303.447V376.016H279.575ZM326.805 402.512C323.135 402.512 319.871 401.744 317.013 400.208C314.197 398.672 311.957 396.581 310.293 393.936C308.671 391.248 307.861 388.197 307.861 384.784C307.861 381.328 308.671 378.277 310.293 375.632C311.957 372.944 314.197 370.853 317.013 369.36C319.871 367.824 323.135 367.056 326.805 367.056C330.431 367.056 333.674 367.824 336.533 369.36C339.391 370.853 341.631 372.923 343.253 375.568C344.874 378.213 345.685 381.285 345.685 384.784C345.685 388.197 344.874 391.248 343.253 393.936C341.631 396.581 339.391 398.672 336.533 400.208C333.674 401.744 330.431 402.512 326.805 402.512ZM326.805 394.32C328.469 394.32 329.962 393.936 331.285 393.168C332.607 392.4 333.653 391.312 334.421 389.904C335.189 388.453 335.573 386.747 335.573 384.784C335.573 382.779 335.189 381.072 334.421 379.664C333.653 378.256 332.607 377.168 331.285 376.4C329.962 375.632 328.469 375.248 326.805 375.248C325.141 375.248 323.647 375.632 322.325 376.4C321.002 377.168 319.935 378.256 319.125 379.664C318.357 381.072 317.973 382.779 317.973 384.784C317.973 386.747 318.357 388.453 319.125 389.904C319.935 391.312 321.002 392.4 322.325 393.168C323.647 393.936 325.141 394.32 326.805 394.32ZM352.358 402V367.568H361.894V377.296L360.55 374.48C361.574 372.048 363.217 370.213 365.478 368.976C367.739 367.696 370.491 367.056 373.734 367.056V376.272C373.307 376.229 372.923 376.208 372.582 376.208C372.241 376.165 371.878 376.144 371.494 376.144C368.763 376.144 366.545 376.933 364.838 378.512C363.174 380.048 362.342 382.459 362.342 385.744V402H352.358ZM396.509 402.512C392.583 402.512 389.127 401.744 386.141 400.208C383.197 398.672 380.914 396.581 379.293 393.936C377.671 391.248 376.861 388.197 376.861 384.784C376.861 381.328 377.65 378.277 379.229 375.632C380.85 372.944 383.047 370.853 385.821 369.36C388.594 367.824 391.73 367.056 395.229 367.056C398.599 367.056 401.629 367.781 404.317 369.232C407.047 370.64 409.202 372.688 410.781 375.376C412.359 378.021 413.149 381.2 413.149 384.912C413.149 385.296 413.127 385.744 413.085 386.256C413.042 386.725 412.999 387.173 412.957 387.6H384.989V381.776H407.708L403.869 383.504C403.869 381.712 403.506 380.155 402.781 378.832C402.055 377.509 401.053 376.485 399.773 375.76C398.493 374.992 396.999 374.608 395.293 374.608C393.586 374.608 392.071 374.992 390.749 375.76C389.469 376.485 388.466 377.531 387.741 378.896C387.015 380.219 386.653 381.797 386.653 383.632V385.168C386.653 387.045 387.058 388.709 387.869 390.16C388.722 391.568 389.895 392.656 391.389 393.424C392.925 394.149 394.717 394.512 396.765 394.512C398.599 394.512 400.199 394.235 401.565 393.68C402.973 393.125 404.253 392.293 405.405 391.184L410.717 396.944C409.138 398.736 407.154 400.123 404.765 401.104C402.375 402.043 399.623 402.512 396.509 402.512Z" fill="white"/>
<rect x="4" y="1" width="77" height="77" fill="#F1C22E"/>
<path d="M23.8433 62V17.2H45.7313C51.3633 17.2 55.5873 18.2667 58.4033 20.4C61.2619 22.5333 62.6913 25.3493 62.6913 28.848C62.6913 31.1947 62.1153 33.2427 60.9633 34.992C59.8113 36.6987 58.2326 38.0213 56.2273 38.96C54.2219 39.8987 51.9179 40.368 49.3153 40.368L50.5312 37.744C53.3473 37.744 55.8433 38.2133 58.0193 39.152C60.1953 40.048 61.8806 41.392 63.0753 43.184C64.3126 44.976 64.9313 47.1733 64.9313 49.776C64.9313 53.616 63.4166 56.624 60.3873 58.8C57.3579 60.9333 52.8993 62 47.0113 62H23.8433ZM34.1473 54.192H46.2433C48.9313 54.192 50.9579 53.7653 52.3232 52.912C53.7313 52.016 54.4353 50.608 54.4353 48.688C54.4353 46.8107 53.7313 45.424 52.3232 44.528C50.9579 43.5893 48.9313 43.12 46.2433 43.12H33.3793V35.568H44.4513C46.9686 35.568 48.8886 35.1413 50.2113 34.288C51.5766 33.392 52.2593 32.048 52.2593 30.256C52.2593 28.5067 51.5766 27.2053 50.2113 26.352C48.8886 25.456 46.9686 25.008 44.4513 25.008H34.1473V54.192Z" fill="white"/>
<rect x="4" y="86" width="77" height="77" fill="#024A59"/>
<path d="M43.072 147.768C39.5307 147.768 36.2453 147.192 33.216 146.04C30.2293 144.888 27.6267 143.267 25.408 141.176C23.232 139.085 21.5253 136.632 20.288 133.816C19.0933 131 18.496 127.928 18.496 124.6C18.496 121.272 19.0933 118.2 20.288 115.384C21.5253 112.568 23.2533 110.115 25.472 108.024C27.6907 105.933 30.2933 104.312 33.28 103.16C36.2667 102.008 39.5093 101.432 43.008 101.432C46.5493 101.432 49.792 102.008 52.736 103.16C55.7227 104.312 58.304 105.933 60.48 108.024C62.6987 110.115 64.4267 112.568 65.664 115.384C66.9013 118.157 67.52 121.229 67.52 124.6C67.52 127.928 66.9013 131.021 65.664 133.88C64.4267 136.696 62.6987 139.149 60.48 141.24C58.304 143.288 55.7227 144.888 52.736 146.04C49.792 147.192 46.5707 147.768 43.072 147.768ZM43.008 138.936C45.0133 138.936 46.848 138.595 48.512 137.912C50.2187 137.229 51.712 136.248 52.992 134.968C54.272 133.688 55.2533 132.173 55.936 130.424C56.6613 128.675 57.024 126.733 57.024 124.6C57.024 122.467 56.6613 120.525 55.936 118.776C55.2533 117.027 54.272 115.512 52.992 114.232C51.7547 112.952 50.2827 111.971 48.576 111.288C46.8693 110.605 45.0133 110.264 43.008 110.264C41.0027 110.264 39.1467 110.605 37.44 111.288C35.776 111.971 34.304 112.952 33.024 114.232C31.744 115.512 30.7413 117.027 30.016 118.776C29.3333 120.525 28.992 122.467 28.992 124.6C28.992 126.691 29.3333 128.632 30.016 130.424C30.7413 132.173 31.7227 133.688 32.96 134.968C34.24 136.248 35.7333 137.229 37.44 137.912C39.1467 138.595 41.0027 138.936 43.008 138.936Z" fill="white"/>
<rect x="4" y="171" width="77" height="77" fill="#F2AE31"/>
<path d="M43.072 232.768C39.5307 232.768 36.2453 232.192 33.216 231.04C30.2293 229.888 27.6267 228.267 25.408 226.176C23.232 224.085 21.5253 221.632 20.288 218.816C19.0933 216 18.496 212.928 18.496 209.6C18.496 206.272 19.0933 203.2 20.288 200.384C21.5253 197.568 23.2533 195.115 25.472 193.024C27.6907 190.933 30.2933 189.312 33.28 188.16C36.2667 187.008 39.5093 186.432 43.008 186.432C46.5493 186.432 49.792 187.008 52.736 188.16C55.7227 189.312 58.304 190.933 60.48 193.024C62.6987 195.115 64.4267 197.568 65.664 200.384C66.9013 203.157 67.52 206.229 67.52 209.6C67.52 212.928 66.9013 216.021 65.664 218.88C64.4267 221.696 62.6987 224.149 60.48 226.24C58.304 228.288 55.7227 229.888 52.736 231.04C49.792 232.192 46.5707 232.768 43.072 232.768ZM43.008 223.936C45.0133 223.936 46.848 223.595 48.512 222.912C50.2187 222.229 51.712 221.248 52.992 219.968C54.272 218.688 55.2533 217.173 55.936 215.424C56.6613 213.675 57.024 211.733 57.024 209.6C57.024 207.467 56.6613 205.525 55.936 203.776C55.2533 202.027 54.272 200.512 52.992 199.232C51.7547 197.952 50.2827 196.971 48.576 196.288C46.8693 195.605 45.0133 195.264 43.008 195.264C41.0027 195.264 39.1467 195.605 37.44 196.288C35.776 196.971 34.304 197.952 33.024 199.232C31.744 200.512 30.7413 202.027 30.016 203.776C29.3333 205.525 28.992 207.467 28.992 209.6C28.992 211.691 29.3333 213.632 30.016 215.424C30.7413 217.173 31.7227 218.688 32.96 219.968C34.24 221.248 35.7333 222.229 37.44 222.912C39.1467 223.595 41.0027 223.936 43.008 223.936Z" fill="white"/>
<rect x="4" y="256" width="77" height="77" fill="#593D25"/>
<path d="M23.8433 317V272.2H45.7313C51.3633 272.2 55.5873 273.267 58.4033 275.4C61.2619 277.533 62.6913 280.349 62.6913 283.848C62.6913 286.195 62.1153 288.243 60.9633 289.992C59.8113 291.699 58.2326 293.021 56.2273 293.96C54.2219 294.899 51.9179 295.368 49.3153 295.368L50.5312 292.744C53.3473 292.744 55.8433 293.213 58.0193 294.152C60.1953 295.048 61.8806 296.392 63.0753 298.184C64.3126 299.976 64.9313 302.173 64.9313 304.776C64.9313 308.616 63.4166 311.624 60.3873 313.8C57.3579 315.933 52.8993 317 47.0113 317H23.8433ZM34.1473 309.192H46.2433C48.9313 309.192 50.9579 308.765 52.3232 307.912C53.7313 307.016 54.4353 305.608 54.4353 303.688C54.4353 301.811 53.7313 300.424 52.3232 299.528C50.9579 298.589 48.9313 298.12 46.2433 298.12H33.3793V290.568H44.4513C46.9686 290.568 48.8886 290.141 50.2113 289.288C51.5766 288.392 52.2593 287.048 52.2593 285.256C52.2593 283.507 51.5766 282.205 50.2113 281.352C48.8886 280.456 46.9686 280.008 44.4513 280.008H34.1473V309.192Z" fill="white"/>
<rect x="4" y="341" width="77" height="77" fill="#A1A2A6"/>
<path d="M42.6258 402.768C39.0418 402.768 35.6071 402.299 32.3218 401.36C29.0364 400.379 26.3911 399.12 24.3858 397.584L27.9058 389.776C29.8258 391.141 32.0871 392.272 34.6898 393.168C37.3351 394.021 40.0018 394.448 42.6898 394.448C44.7378 394.448 46.3804 394.256 47.6178 393.872C48.8978 393.445 49.8364 392.869 50.4338 392.144C51.0311 391.419 51.3298 390.587 51.3298 389.648C51.3298 388.453 50.8604 387.515 49.9218 386.832C48.9831 386.107 47.7458 385.531 46.2098 385.104C44.6738 384.635 42.9671 384.208 41.0898 383.824C39.2551 383.397 37.3991 382.885 35.5218 382.288C33.6871 381.691 32.0018 380.923 30.4658 379.984C28.9298 379.045 27.6711 377.808 26.6898 376.272C25.7511 374.736 25.2818 372.773 25.2818 370.384C25.2818 367.824 25.9644 365.499 27.3298 363.408C28.7378 361.275 30.8284 359.589 33.6018 358.352C36.4178 357.072 39.9378 356.432 44.1618 356.432C46.9778 356.432 49.7511 356.773 52.4818 357.456C55.2124 358.096 57.6231 359.077 59.7138 360.4L56.5138 368.272C54.4231 367.077 52.3324 366.203 50.2418 365.648C48.1511 365.051 46.1031 364.752 44.0978 364.752C42.0924 364.752 40.4498 364.987 39.1698 365.456C37.8898 365.925 36.9724 366.544 36.4178 367.312C35.8631 368.037 35.5858 368.891 35.5858 369.872C35.5858 371.024 36.0551 371.963 36.9938 372.688C37.9324 373.371 39.1698 373.925 40.7058 374.352C42.2418 374.779 43.9271 375.205 45.7618 375.632C47.6391 376.059 49.4951 376.549 51.3298 377.104C53.2071 377.659 54.9138 378.405 56.4498 379.344C57.9858 380.283 59.2231 381.52 60.1618 383.056C61.1431 384.592 61.6338 386.533 61.6338 388.88C61.6338 391.397 60.9298 393.701 59.5218 395.792C58.1138 397.883 56.0018 399.568 53.1858 400.848C50.4124 402.128 46.8924 402.768 42.6258 402.768Z" fill="white"/>
</g>
<defs>
<filter id="filter0_d_164_21" x="0.2" y="1" width="459.298" height="424.8" filterUnits="userSpaceOnUse" color-interpolation-filters="sRGB">
<feFlood flood-opacity="0" result="BackgroundImageFix"/>
<feColorMatrix in="SourceAlpha" type="matrix" values="0 0 0 0 0 0 0 0 0 0 0 0 0 0 0 0 0 0 127 0" result="hardAlpha"/>
<feOffset dy="4"/>
<feGaussianBlur stdDeviation="1.9"/>
<feComposite in2="hardAlpha" operator="out"/>
<feColorMatrix type="matrix" values="0 0 0 0 0 0 0 0 0 0 0 0 0 0 0 0 0 0 0.22 0"/>
<feBlend mode="normal" in2="BackgroundImageFix" result="effect1_dropShadow_164_21"/>
<feBlend mode="normal" in="SourceGraphic" in2="effect1_dropShadow_164_21" result="shape"/>
</filter>
</defs>
</svg>
